<svg width="286" height="286" viewBox="0 0 286 286" fill="none" xmlns="http://www.w3.org/2000/svg">
<path d="M218.385 3H261.462C267.174 3 272.652 5.26922 276.692 9.30847C280.731 13.3477 283 18.8261 283 24.5385V67.6154M3 67.6154V24.5385C3 18.8261 5.26922 13.3477 9.30847 9.30847C13.3477 5.26922 18.8261 3 24.5385 3H67.6154M218.385 283H261.462C267.174 283 272.652 280.731 276.692 276.692C280.731 272.652 283 267.174 283 261.462V218.385M3 218.385V261.462C3 267.174 5.26922 272.652 9.30847 276.692C13.3477 280.731 18.8261 283 24.5385 283H67.6154" stroke="#505866" stroke-width="5" stroke-linecap="round" stroke-linejoin="round"/>
</svg>
