<svg width="24" height="24" viewBox="0 0 24 24" fill="none" xmlns="http://www.w3.org/2000/svg">
<path d="M9.86512 20.7402C10.1414 20.7402 10.4009 20.5559 10.4763 20.271C10.5684 19.9358 10.3674 19.5922 10.0242 19.5C6.62512 18.6034 4.25581 15.5196 4.25581 12C4.25581 7.72626 7.73023 4.2486 12 4.2486C15.6251 4.2486 18.0028 6.36872 19.1163 7.65084H16.6549C16.3116 7.65084 16.027 7.93575 16.027 8.27933C16.027 8.62291 16.3033 8.9162 16.6549 8.9162H20.3637C20.4056 8.9162 20.4809 8.90782 20.5395 8.89106C20.6149 8.86592 20.6819 8.8324 20.7405 8.7905C20.8158 8.74022 20.8744 8.67318 20.9163 8.59776C20.9581 8.52235 20.9916 8.43017 21 8.33799C21 8.31285 21 8.29609 21 8.27095V4.46648C21 4.12291 20.7153 3.83799 20.3721 3.83799C20.0288 3.83799 19.7442 4.12291 19.7442 4.46648V6.46927C18.3795 5.00279 15.8093 3 12 3C7.03535 3 3 7.03911 3 12.0084C3 16.0978 5.75442 19.6844 9.70605 20.7235C9.75628 20.7318 9.81488 20.7402 9.86512 20.7402Z" fill="#505866"/>
<path d="M12.5944 21C12.6112 21 12.6279 20.9916 12.6363 20.9916C13.5405 20.933 14.4279 20.7318 15.2651 20.405C15.5079 20.3128 15.6753 20.0698 15.667 19.8101C15.667 19.7346 15.6502 19.6592 15.6251 19.5922C15.4995 19.2737 15.1228 19.1145 14.813 19.2318C14.0847 19.5168 13.3228 19.6844 12.5526 19.743C12.226 19.7598 11.9665 20.0447 11.9665 20.3799L11.9749 20.4134C11.9916 20.7402 12.2679 21 12.5944 21ZM17.2074 19.1983C17.3498 19.1983 17.4837 19.148 17.6009 19.0642C18.3042 18.4944 18.9237 17.8324 19.426 17.095C19.5014 16.986 19.5433 16.8687 19.5433 16.743C19.5433 16.5335 19.4428 16.3408 19.267 16.2235C18.9907 16.0307 18.5888 16.1061 18.3963 16.3743V16.3827C18.3879 16.3911 18.3795 16.4078 18.3712 16.4162C17.9358 17.0447 17.4084 17.6061 16.814 18.0754C16.6716 18.1927 16.5795 18.3687 16.5795 18.5615C16.5795 18.7039 16.6214 18.8464 16.7135 18.9637C16.8391 19.1145 17.0149 19.1983 17.2074 19.1983ZM20.0037 15.1089C20.28 15.1089 20.5228 14.933 20.5981 14.6732C20.866 13.8101 21 12.9134 21 12.0084V12C20.9916 11.6564 20.7153 11.3799 20.3721 11.3799C20.0288 11.3799 19.7442 11.6648 19.7442 12.0084C19.7442 12.7961 19.627 13.567 19.4009 14.2961C19.3842 14.3631 19.3758 14.4218 19.3758 14.4888C19.3758 14.757 19.5516 15 19.8195 15.0838C19.8781 15.1006 19.9367 15.1089 20.0037 15.1089Z" fill="#505866"/>
<path d="M9.98823 20.7632C10.0043 20.768 10.0227 20.7648 10.0307 20.7672C10.9137 20.9709 11.8214 21.0333 12.7171 20.9609C12.9761 20.9424 13.2063 20.7577 13.2728 20.5065C13.2944 20.4342 13.3 20.3572 13.2952 20.2857C13.2662 19.9446 12.951 19.6838 12.6206 19.7072C11.8412 19.7708 11.0633 19.7123 10.3087 19.5472C9.99115 19.4694 9.66081 19.6677 9.56466 19.9888L9.56306 20.0233C9.48534 20.3412 9.67547 20.6694 9.98823 20.7632ZM14.9238 20.3633C15.0602 20.4042 15.2029 20.3945 15.3392 20.3479C16.1763 20.0042 16.9597 19.5481 17.6524 18.9861C17.7558 18.9034 17.8296 18.8031 17.8657 18.6827C17.9258 18.482 17.8848 18.2685 17.7501 18.1056C17.5407 17.8416 17.1341 17.7983 16.8728 17.9998L16.8703 18.0079C16.8599 18.0135 16.8471 18.0271 16.8367 18.0328C16.2394 18.5097 15.5731 18.8959 14.8691 19.1745C14.6991 19.246 14.5604 19.3881 14.5051 19.5727C14.4642 19.7092 14.4634 19.8577 14.518 19.9965C14.595 20.1771 14.7394 20.3079 14.9238 20.3633ZM18.7755 17.2498C19.0401 17.3292 19.3232 17.2304 19.4699 17.0032C19.9741 16.2534 20.3597 15.433 20.6193 14.5661L20.6217 14.5581C20.7122 14.2266 20.5269 13.8823 20.1981 13.7836C19.8693 13.685 19.5149 13.8761 19.4164 14.2052C19.1904 14.9597 18.857 15.6645 18.4313 16.2979C18.396 16.3573 18.3712 16.4111 18.3519 16.4753C18.275 16.7322 18.3737 17.0155 18.6063 17.1727C18.6576 17.2056 18.7113 17.2305 18.7755 17.2498Z" fill="#505866"/>
</svg>
